<?xml version="1.0" encoding="UTF-8"?> <svg id="calender" xmlns="http://www.w3.org/2000/svg" version="1.1" xmlns:xlink="http://www.w3.org/1999/xlink" viewBox="0 0 180 180"> <defs> <style> .st0 { fill: #fff; } .st1 { fill: url(#gld); } </style> <linearGradient id="gld" data-name="gld" x1="2.93" y1="177.07" x2="177.07" y2="2.93" gradientUnits="userSpaceOnUse"> <stop offset="0" stop-color="#0071bc"/> <stop offset=".26" stop-color="#22b573"/> <stop offset=".58" stop-color="#f7931e"/> <stop offset="1" stop-color="#ed1e79"/> </linearGradient> </defs> <g id="base"> <rect class="st1" width="180" height="180" rx="10" ry="10"/> </g> <g id="num"> <path class="st0" d="M164.31,33.48h-17.07V15.64c0-2.21-1.79-4-4-4h-16.05c-2.21,0-4,1.79-4,4v17.85H56.81V15.64c0-2.21-1.79-4-4-4h-16.05c-2.21,0-4,1.79-4,4v17.85H15.69c-2.21,0-4,1.79-4,4v126.88c0,2.21,1.79,4,4,4h148.61c2.21,0,4-1.79,4-4V37.48c0-2.21-1.79-4-4-4ZM162.39,159.44c0,1.66-1.34,3-3,3H20.61c-1.66,0-3-1.34-3-3V53.51h144.77v105.93Z"/> <path class="st0" d="M84.41,153.8h11.54V62.25h-8.9c-2.09,10.89-10.19,16.33-24.32,16.33v9.09c9.78,0,17.01-1.56,21.67-4.67v70.8Z"/> </g> </svg>