<?xml version="1.0" encoding="UTF-8"?>
<svg id="_レイヤー_1" data-name="レイヤー_1" xmlns="http://www.w3.org/2000/svg" version="1.1" viewBox="0 0 39.62 39.87">
  <!-- Generator: Adobe Illustrator 30.6.0, SVG Export Plug-In . SVG Version: 2.1.4 Build 109)  -->
  <defs>
    <style>
      .st0 {
        fill: #d6c2ef;
      }
    </style>
  </defs>
  <path class="st0" d="M31.56,32.57l-2.23-.89.49,2.35c.86,4.12-4.54,6.48-6.98,3.05l-1.39-1.96-.86,2.24c-1.51,3.93-7.32,3-7.52-1.21l-.11-2.4-1.94,1.42c-3.4,2.49-7.78-1.44-5.67-5.08l1.2-2.08-2.4.15c-4.2.26-5.77-5.41-2.02-7.34l2.14-1.1-2.1-1.17c-3.68-2.05-1.92-7.67,2.27-7.27l2.39.23-1.13-2.12c-1.98-3.72,2.53-7.5,5.84-4.89l1.89,1.49.19-2.39c.34-4.2,6.18-4.94,7.56-.96l.79,2.27,1.46-1.91c2.56-3.35,7.87-.81,6.88,3.28l-.57,2.33,2.26-.82c3.96-1.43,7.06,3.57,4.01,6.48l-1.74,1.66,2.34.53c4.11.94,4.01,6.82-.13,7.62l-2.36.45,1.68,1.71c2.95,3.01-.32,7.9-4.23,6.34Z"/>
</svg>