<?xml version="1.0" encoding="UTF-8"?>
<svg id="_レイヤー_1" data-name="レイヤー_1" xmlns="http://www.w3.org/2000/svg" version="1.1" viewBox="0 0 40 40">
  <!-- Generator: Adobe Illustrator 30.6.0, SVG Export Plug-In . SVG Version: 2.1.4 Build 109)  -->
  <defs>
    <style>
      .st0 {
        fill: #ccc;
      }
    </style>
  </defs>
  <path class="st0" d="M20,0C8.95,0,0,8.95,0,20s8.95,20,20,20,20-8.95,20-20S31.05,0,20,0ZM5,20c0-8.27,6.73-15,15-15,3.14,0,6.06.98,8.47,2.63L8.18,29.2c-1.99-2.54-3.18-5.73-3.18-9.2ZM20,35c-3.14,0-6.06-.98-8.47-2.63L31.82,10.8c1.99,2.54,3.18,5.73,3.18,9.2,0,8.27-6.73,15-15,15Z"/>
</svg>