<?xml version="1.0" encoding="UTF-8"?>
<svg id="_レイヤー_1" data-name="レイヤー_1" xmlns="http://www.w3.org/2000/svg" version="1.1" viewBox="0 0 45 34.8">
  <!-- Generator: Adobe Illustrator 30.6.0, SVG Export Plug-In . SVG Version: 2.1.4 Build 109)  -->
  <defs>
    <style>
      .st0 {
        fill: #e5cb98;
      }
    </style>
  </defs>
  <path class="st0" d="M45,8.3c0-1.89-1.53-3.42-3.42-3.42s-3.42,1.53-3.42,3.42c0,.92.37,1.76.96,2.37-2.32,4.81-6.77,6.5-10.21,4.97-3.07-1.36-4.2-5.24-4.58-8.24,1.25-.66,2.1-1.97,2.1-3.48,0-2.17-1.76-3.93-3.93-3.93s-3.93,1.76-3.93,3.93c0,1.51.85,2.82,2.1,3.48-.38,3-1.51,6.88-4.58,8.24-3.44,1.52-7.89-.16-10.21-4.97.59-.61.96-1.45.96-2.37,0-1.89-1.53-3.42-3.42-3.42-1.89,0-3.42,1.53-3.42,3.42,0,1.74,1.3,3.17,2.98,3.39l3.94,14.42h31.17l3.94-14.42c1.68-.22,2.98-1.65,2.98-3.39Z"/>
  <path class="st0" d="M39.99,32.26c0,1.4-1.14,2.54-2.54,2.54H7.55c-1.4,0-2.54-1.14-2.54-2.54v-.21c0-1.41,1.14-2.54,2.54-2.54h29.89c1.41,0,2.54,1.14,2.54,2.54v.21Z"/>
</svg>