<?xml version="1.0" encoding="UTF-8"?>
<svg id="_レイヤー_1" data-name="レイヤー_1" xmlns="http://www.w3.org/2000/svg" version="1.1" viewBox="0 0 40 40">
  <!-- Generator: Adobe Illustrator 30.6.0, SVG Export Plug-In . SVG Version: 2.1.4 Build 109)  -->
  <defs>
    <style>
      .st0 {
        fill: #b3e0a9;
      }
    </style>
  </defs>
  <path class="st0" d="M37.5,2.5c-10.43-5.5-21.23-1.18-28.13,5.72C3.09,14.5.78,26.67,4.4,32.76l-4.4,4.4,2.84,2.84,4.4-4.4c6.1,3.61,18.27,1.3,24.55-4.98,6.9-6.9,11.21-17.7,5.72-28.13ZM32.94,17.77l-8.41-.2-6.38,6.38,9.61.31-.1,2.97-12.4-.4-5.01,5.01-2.1-2.1,5.01-5.01-.4-12.4,2.97-.1.31,9.61,6.38-6.38-.2-8.41,2.97-.07.13,5.57,5.54-5.54,2.1,2.1-5.54,5.54,5.57.13-.07,2.97Z"/>
</svg>