<?xml version="1.0" encoding="UTF-8"?>
<svg id="_レイヤー_1" data-name="レイヤー_1" xmlns="http://www.w3.org/2000/svg" version="1.1" viewBox="0 0 20.47 24">
  <!-- Generator: Adobe Illustrator 30.5.1, SVG Export Plug-In . SVG Version: 2.1.4 Build 3)  -->
  <defs>
    <style>
      .st0 {
        fill: #231815;
      }

      .st1 {
        fill: #fff;
      }

      .st2 {
        fill: #776cc4;
      }

      .st3 {
        fill: #eb6d5f;
      }

      .st4 {
        fill: #dbdcdc;
      }
    </style>
  </defs>
  <path class="st1" d="M.77,23.23V.77h12.35v6.2c0,.21.17.38.38.38h6.2v15.88H.77Z"/>
  <rect class="st4" x="3.46" y="4.47" width="13.55" height="11.67"/>
  <polygon class="st2" points="19.16 6.59 13.88 6.59 13.88 1.31 19.16 6.59"/>
  <g>
    <path class="st3" d="M15.56,18.37c-.02-.06-.08-.09-.14-.09h-2.83v-4.66c0-.08-.07-.15-.15-.15h-4.41c-.08,0-.15.07-.15.15v4.66h-2.83c-.06,0-.12.04-.14.09-.02.06-.01.12.03.17l5.19,5.19s.07.04.11.04.08-.02.11-.04l5.19-5.19s.06-.11.03-.17Z"/>
    <path class="st0" d="M20.46,6.95s0-.07-.02-.1c0-.01,0-.02-.01-.04-.02-.04-.04-.08-.08-.11L13.77.11s-.07-.06-.11-.08c-.01,0-.02,0-.04-.01-.03-.01-.06-.02-.1-.02,0,0-.02,0-.02,0H.38c-.21,0-.38.17-.38.38v23.23c0,.21.17.38.38.38h4.08c.21,0,.38-.17.38-.38s-.17-.38-.38-.38H.77V.77h12.35v6.2c0,.21.17.38.38.38h6.2v15.88h-3.69c-.21,0-.38.17-.38.38s.17.38.38.38h4.08c.21,0,.38-.17.38-.38V6.97s0-.02,0-.02ZM13.88,6.59V1.31l5.28,5.28h-5.28Z"/>
  </g>
</svg>