<?xml version="1.0" encoding="UTF-8"?>
<svg id="_レイヤー_1" data-name="レイヤー_1" xmlns="http://www.w3.org/2000/svg" version="1.1" viewBox="0 0 23.02 21.84">
  <!-- Generator: Adobe Illustrator 30.5.1, SVG Export Plug-In . SVG Version: 2.1.4 Build 3)  -->
  <defs>
    <style>
      .st0 {
        fill: #eb6d5f;
      }

      .st1 {
        fill: #231815;
      }

      .st2 {
        fill: #fde297;
      }
    </style>
  </defs>
  <g>
    <polygon class="st0" points="14.01 18.78 20.12 12.79 6.54 .43 .43 6.42 14.01 18.78"/>
    <path class="st1" d="M14.1,19.2s-.06,0-.09,0c-.11,0-.22-.05-.3-.13L.12,6.72c-.17-.17-.16-.44,0-.61L6.24.12c.17-.17.44-.16.61,0l13.58,12.36c.17.17.16.44,0,.61l-6.11,5.99c-.06.06-.13.1-.21.11ZM1.04,6.43l12.98,11.74,5.49-5.39L6.54,1.04,1.04,6.43Z"/>
  </g>
  <polygon class="st1" points="18.21 14.66 4.63 2.3 5.25 1.7 18.83 14.05 18.21 14.66"/>
  <polygon class="st1" points="15.3 17.51 1.72 5.15 2.34 4.55 15.92 16.91 15.3 17.51"/>
  <g>
    <g>
      <polygon class="st0" points="22.58 21.41 20.23 20.69 21.91 19.04 22.58 21.41"/>
      <path class="st1" d="M22.67,21.83c-.07.01-.14.01-.22,0l-2.36-.72c-.15-.04-.26-.16-.29-.31s0-.3.12-.41l1.68-1.65c.11-.11.27-.15.41-.11.15.04.26.15.3.3l.68,2.37c.04.15,0,.32-.11.43-.06.06-.13.1-.21.11ZM21.05,20.49l.9.28-.26-.91-.64.63Z"/>
    </g>
    <g>
      <polygon class="st2" points="20.12 12.79 21.91 19.04 20.23 20.69 14.01 18.78 20.12 12.79"/>
      <path class="st1" d="M20.32,21.11c-.07.01-.14.01-.22,0l-6.22-1.91c-.15-.04-.26-.16-.29-.31s0-.3.12-.41l6.11-5.99c.11-.11.27-.15.41-.11.15.04.26.15.3.3l1.78,6.25c.04.15,0,.32-.11.43l-1.68,1.65c-.06.06-.13.1-.21.11ZM14.83,18.58l5.28,1.62,1.31-1.29-1.51-5.31-5.07,4.97Z"/>
    </g>
  </g>
</svg>