<?xml version="1.0" encoding="UTF-8"?>
<svg id="_レイヤー_1" data-name="レイヤー_1" xmlns="http://www.w3.org/2000/svg" version="1.1" viewBox="0 0 24 24.01">
  <!-- Generator: Adobe Illustrator 30.5.1, SVG Export Plug-In . SVG Version: 2.1.4 Build 3)  -->
  <defs>
    <style>
      .st0 {
        fill: #231815;
      }

      .st1 {
        fill: #fff;
      }

      .st2 {
        fill: #6cc3c5;
      }

      .st3 {
        fill: #f6dc94;
      }
    </style>
  </defs>
  <rect class="st3" x="4.47" y=".67" width="15.06" height="4.06"/>
  <rect class="st1" x="4.47" y="13.55" width="15.06" height="9.79"/>
  <path class="st2" d="M23.33,15.12c0,.65-.53,1.18-1.18,1.18h-1.94v-3.08c0-.18-.15-.33-.33-.33H4.13c-.18,0-.33.15-.33.33v3.08h-1.94c-.65,0-1.18-.53-1.18-1.18V6.59c0-.65.53-1.18,1.18-1.18h20.29c.65,0,1.18.53,1.18,1.18v8.53Z"/>
  <g>
    <path class="st0" d="M22.15,16.97h-2.28c-.19,0-.33-.15-.33-.33s.15-.33.33-.33h2.28c.65,0,1.18-.53,1.18-1.18V6.59c0-.65-.53-1.18-1.18-1.18H1.85c-.65,0-1.18.53-1.18,1.18v8.53c0,.65.53,1.18,1.18,1.18h2.28c.19,0,.33.15.33.33s-.15.33-.33.33H1.85c-1.02,0-1.85-.83-1.85-1.85V6.59c0-1.02.83-1.85,1.85-1.85h20.29c1.02,0,1.85.83,1.85,1.85v8.53c0,1.02-.83,1.85-1.85,1.85Z"/>
    <path class="st0" d="M19.87,24.01H4.13c-.19,0-.33-.15-.33-.33v-10.46c0-.19.15-.33.33-.33h15.73c.19,0,.33.15.33.33v10.46c0,.19-.15.33-.33.33ZM4.47,23.34h15.06v-9.79H4.47v9.79Z"/>
    <path class="st0" d="M19.87,5.4H4.13c-.19,0-.33-.15-.33-.33V.33c0-.19.15-.33.33-.33h15.73c.19,0,.33.15.33.33v4.73c0,.19-.15.33-.33.33ZM4.47,4.73h15.06V.67H4.47v4.06Z"/>
    <rect class="st1" x="13.87" y="7.21" width="2.61" height="2.61"/>
    <rect class="st1" x="18.92" y="7.21" width="2.61" height="2.61"/>
  </g>
</svg>